HIERARCHY
ROOT hip
{
	OFFSET 0.000000 0.000000 0.000000 
	CHANNELS 6 Xposition Yposition Zposition Xrotation Zrotation Yrotation
	JOINT abdomen
	{
		OFFSET 0.000000 3.402643 0.000000 
		CHANNELS 3 Xrotation Zrotation Yrotation
		JOINT chest
		{
			OFFSET 0.000000 8.438565 -0.680529 
			CHANNELS 3 Xrotation Zrotation Yrotation
			JOINT neck
			{
				OFFSET 0.000000 10.207942 -0.272212 
				CHANNELS 3 Xrotation Zrotation Yrotation
				JOINT head
				{
					OFFSET 0.000000 3.130431 0.000000 
					CHANNELS 3 Xrotation Zrotation Yrotation
					End Site
					{
						OFFSET 0.000000 3.130435 0.000000 
					}
				}
			}
			JOINT lCollar
			{
				OFFSET 3.470700 6.669187 -0.816635 
				CHANNELS 3 Yrotation Zrotation Xrotation
				JOINT lShldr
				{
					OFFSET 3.198488 0.000000 0.000000 
					CHANNELS 3 Zrotation Yrotation Xrotation
					JOINT lForeArm
					{
						OFFSET 10.139888 0.000000 0.000000 
						CHANNELS 3 Yrotation Zrotation Xrotation
						JOINT lHand
						{
							OFFSET 8.370511 0.000000 0.000000 
							CHANNELS 3 Zrotation Yrotation Xrotation
							End Site
							{
								OFFSET 4.083176 0.000000 0.000000 
							}
						}
					}
				}
			}
			JOINT rCollar
			{
				OFFSET -3.470700 6.669187 -0.816635 
				CHANNELS 3 Yrotation Zrotation Xrotation
				JOINT rShldr
				{
					OFFSET -3.198488 0.000000 0.000000 
					CHANNELS 3 Zrotation Yrotation Xrotation
					JOINT rForeArm
					{
						OFFSET -10.139888 0.000000 0.000000 
						CHANNELS 3 Yrotation Zrotation Xrotation
						JOINT rHand
						{
							OFFSET -8.370511 0.000000 0.000000 
							CHANNELS 3 Zrotation Yrotation Xrotation
							End Site
							{
								OFFSET -4.083176 0.000000 0.000000 
							}
						}
					}
				}
			}
		}
	}
	JOINT lThigh
	{
		OFFSET 5.308129 -1.633274 1.361059 
		CHANNELS 3 Xrotation Zrotation Yrotation
		JOINT lShin
		{
			OFFSET -2.041588 -20.007561 0.000000 
			CHANNELS 3 Xrotation Zrotation Yrotation
			JOINT lFoot
			{
				OFFSET 0.000000 -19.190928 -1.224953 
				CHANNELS 3 Xrotation Yrotation Zrotation
				End Site
				{
					OFFSET 0.000000 -2.449906 4.627600 
				}
			}
		}
	}
	JOINT rThigh
	{
		OFFSET -5.308129 -1.633274 1.361059 
		CHANNELS 3 Xrotation Zrotation Yrotation
		JOINT rShin
		{
			OFFSET 2.041588 -20.007561 0.000000 
			CHANNELS 3 Xrotation Zrotation Yrotation
			JOINT rFoot
			{
				OFFSET 0.000000 -19.190928 -1.224953 
				CHANNELS 3 Xrotation Yrotation Zrotation
				End Site
				{
					OFFSET 0.000000 -2.449906 4.627600 
				}
			}
		}
	}
}
MOTION
Frames: 10
Frame Time: 0.033333
-0.113626 20.996773 -0.113626 82.966530 85.622025 -2.744252 18.879730 -1.080117 -9.473253 8.428247 -1.695739 2.057179 -8.544922 -0.001505 -0.009645 4.729228 -3.498090 11.267281 2.000000 -2.000000 0.000000 -58.293102 -10.893764 -6.622420 2.421238 -1.008986 8.273995 -8.976103 -40.011955 -139.343109 -2.000000 2.000000 0.000000 66.723022 17.516720 25.886515 -2.425982 0.998124 8.264933 37.964104 9.714308 -97.037148 -0.729214 0.019293 -0.201505 4.788688 -1.863043 -0.802435 -26.188820 47.873833 -34.304073 6.798467 -16.362265 -44.598808 6.431058 1.838180 0.890549 29.174580 122.964470 -115.075394 
-0.113626 20.996773 -0.113626 82.966530 85.622025 -2.744252 18.879730 -1.080117 -9.473253 8.428247 -1.695739 2.057179 -8.544922 -0.001505 -0.009645 4.729228 -3.498090 11.267281 2.000000 -2.000000 0.000000 -58.293102 -10.893764 -6.622420 2.421238 -1.008986 8.273995 -8.976103 -40.011955 -139.343109 -2.000000 2.000000 0.000000 66.723022 17.516720 25.886515 -2.425982 0.998124 8.264933 37.964104 9.714308 -97.037148 -1.080452 0.340458 -0.178923 -1.021660 -1.907110 -0.388520 -19.556667 47.781818 -34.921249 6.798467 -16.362265 -44.598808 -6.514626 1.907214 -0.020000 -138.327728 56.621235 65.431984 
-0.113626 20.996773 -0.113626 82.966530 85.622025 -2.744252 18.879730 -1.080117 -9.473253 8.428247 -1.695739 2.057179 -8.544922 -0.001505 -0.009645 4.729228 -3.498090 11.267281 2.000000 -2.000000 0.000000 -58.293102 -10.893764 -6.622420 2.421238 -1.008986 8.273995 -8.976103 -40.011955 -139.343109 -2.000000 2.000000 0.000000 66.723022 17.516720 25.886515 -2.425982 0.998124 8.264933 37.964104 9.714308 -97.037148 -1.080452 0.340458 -0.178923 -1.021660 -1.907110 -0.388520 -19.556667 47.781818 -34.921249 6.798467 -16.362265 -44.598808 -6.514626 1.907214 -0.020000 -138.327728 56.621235 65.431984 
-0.113626 20.996773 -0.113626 82.966530 85.622025 -2.744252 18.879730 -1.080117 -9.473253 8.428247 -1.695739 2.057179 -8.544922 -0.001505 -0.009645 4.729228 -3.498090 11.267281 2.000000 -2.000000 0.000000 -58.293102 -10.893764 -6.622420 2.421238 -1.008986 8.273995 -8.976103 -40.011955 -139.343109 -2.000000 2.000000 0.000000 66.723022 17.516720 25.886515 -2.425982 0.998124 8.264933 37.964104 9.714308 -97.037148 -1.080452 0.340458 -0.178923 -1.021660 -1.907110 -0.388520 -19.556667 47.781818 -34.921249 6.798467 -16.362265 -44.598808 -6.514626 1.907214 -0.020000 -138.327728 56.621235 65.431984 
-0.113626 20.996773 -0.113626 82.966530 85.622025 -2.744252 18.879730 -1.080117 -9.473253 8.428247 -1.695739 2.057179 -8.544922 -0.001505 -0.009645 4.729228 -3.498090 11.267281 2.000000 -2.000000 0.000000 -58.293102 -10.893764 -6.622420 2.421238 -1.008986 8.273995 -8.976103 -40.011955 -139.343109 -2.000000 2.000000 0.000000 66.723022 17.516720 25.886515 -2.425982 0.998124 8.264933 37.964104 9.714308 -97.037148 -1.080452 0.340458 -0.178923 -1.021660 -1.907110 -0.388520 -19.556667 47.781818 -34.921249 6.798467 -16.362265 -44.598808 -6.514626 1.907214 -0.020000 -138.327728 56.621235 65.431984 
-0.113626 20.996773 -0.113626 82.966530 85.622025 -2.744252 18.879730 -1.080117 -9.473253 8.428247 -1.695739 2.057179 -8.544922 -0.001505 -0.009645 4.729228 -3.498090 11.267281 2.000000 -2.000000 0.000000 -58.293102 -10.893764 -6.622420 2.421238 -1.008986 8.273995 -8.976103 -40.011955 -139.343109 -2.000000 2.000000 0.000000 66.723022 17.516720 25.886515 -2.425982 0.998124 8.264933 37.964104 9.714308 -97.037148 -1.080452 0.340458 -0.178923 -1.021660 -1.907110 -0.388520 -19.556667 47.781818 -34.921249 6.798467 -16.362265 -44.598808 -6.514626 1.907214 -0.020000 -138.327728 56.621235 65.431984 
-0.113626 20.996773 -0.113626 82.966530 85.622025 -2.744252 18.879730 -1.080117 -9.473253 8.428247 -1.695739 2.057179 -8.544922 -0.001505 -0.009645 4.729228 -3.498090 11.267281 2.000000 -2.000000 0.000000 -58.293102 -10.893764 -6.622420 2.421238 -1.008986 8.273995 -8.976103 -40.011955 -139.343109 -2.000000 2.000000 0.000000 66.723022 17.516720 25.886515 -2.425982 0.998124 8.264933 37.964104 9.714308 -97.037148 -1.080452 0.340458 -0.178923 -1.021660 -1.907110 -0.388520 -19.556667 47.781818 -34.921249 6.798467 -16.362265 -44.598808 -6.514626 1.907214 -0.020000 -138.327728 56.621235 65.431984 
-0.113626 20.996773 -0.113626 82.966530 85.622025 -2.744252 18.879730 -1.080117 -9.473253 8.428247 -1.695739 2.057179 -8.544922 -0.001505 -0.009645 4.729228 -3.498090 11.267281 2.000000 -2.000000 0.000000 -58.293102 -10.893764 -6.622420 2.421238 -1.008986 8.273995 -8.976103 -40.011955 -139.343109 -2.000000 2.000000 0.000000 66.723022 17.516720 25.886515 -2.425982 0.998124 8.264933 37.964104 9.714308 -97.037148 -1.080452 0.340458 -0.178923 -1.021660 -1.907110 -0.388520 -19.556667 47.781818 -34.921249 6.798467 -16.362265 -44.598808 -6.514626 1.907214 -0.020000 -138.327728 56.621235 65.431984 
-0.113626 20.996773 -0.113626 82.966530 85.622025 -2.744252 18.879730 -1.080117 -9.473253 8.428247 -1.695739 2.057179 -8.544922 -0.001505 -0.009645 4.729228 -3.498090 11.267281 2.000000 -2.000000 0.000000 -58.293102 -10.893764 -6.622420 2.421238 -1.008986 8.273995 -8.976103 -40.011955 -139.343109 -2.000000 2.000000 0.000000 66.723022 17.516720 25.886515 -2.425982 0.998124 8.264933 37.964104 9.714308 -97.037148 -1.080452 0.340458 -0.178923 -1.021660 -1.907110 -0.388520 -19.556667 47.781818 -34.921249 6.798467 -16.362265 -44.598808 -6.514626 1.907214 -0.020000 -138.327728 56.621235 65.431984 
-0.113626 20.996773 -0.113626 82.966530 85.622025 -2.744252 18.879730 -1.080117 -9.473253 8.428247 -1.695739 2.057179 -8.544922 -0.001505 -0.009645 4.729228 -3.498090 11.267281 2.000000 -2.000000 0.000000 -58.293102 -10.893764 -6.622420 2.421238 -1.008986 8.273995 -8.976103 -40.011955 -139.343109 -2.000000 2.000000 0.000000 66.723022 17.516720 25.886515 -2.425982 0.998124 8.264933 37.964104 9.714308 -97.037148 -1.080452 0.340458 -0.178923 -1.021660 -1.907110 -0.388520 -19.556667 47.781818 -34.921249 6.798467 -16.362265 -44.598808 -6.514626 1.907214 -0.020000 -138.327728 56.621235 65.431984 
